<svg xmlns="http://www.w3.org/2000/svg" width="16.675" height="16.675" viewBox="0 0 16.675 16.675">
  <g id="Group_403" data-name="Group 403" transform="translate(-125.5 -491.082)">
    <g id="Group_157" data-name="Group 157" transform="translate(123.125 488.125)">
      <path id="Path_50" data-name="Path 50" d="M15.14,12.25H17" transform="translate(-1.517 -1.156)" fill="none" stroke="#bd5d38" stroke-linecap="round" stroke-linejoin="round" stroke-width="1"/>
      <path id="Path_51" data-name="Path 51" d="M17.378,10h-2.24v3.934" transform="translate(-1.517 -0.875)" fill="none" stroke="#bd5d38" stroke-linecap="round" stroke-linejoin="round" stroke-width="1"/>
      <path id="Path_52" data-name="Path 52" d="M12.45,10v3.938" transform="translate(-1.181 -0.875)" fill="none" stroke="#bd5d38" stroke-linecap="round" stroke-linejoin="round" stroke-width="1"/>
      <path id="Path_53" data-name="Path 53" d="M9.281,10H7.969A1.968,1.968,0,0,0,6,11.969H6a1.968,1.968,0,0,0,1.969,1.969H9.281V11.969H8.188" transform="translate(-0.375 -0.875)" fill="none" stroke="#bd5d38" stroke-linecap="round" stroke-linejoin="round" stroke-width="1"/>
    </g>
    <path id="Path_499" data-name="Path 499" d="M18.675,11.3c0,5.635-1.742,7.377-7.838,7.377S3,16.934,3,10.838,4.742,3,10.838,3,18.675,4.742,18.675,11.3Z" transform="translate(123 488.582)" fill="none" stroke="#bd5d38" stroke-linecap="round" stroke-linejoin="round" stroke-width="1"/>
  </g>
</svg>
