<svg xmlns="http://www.w3.org/2000/svg" width="21.006" height="21.006" viewBox="0 0 21.006 21.006">
  <g id="Group_153" data-name="Group 153" transform="translate(-28 -395)">
    <g id="Smileys.9" transform="translate(28 395)">
      <path id="Path_44" data-name="Path 44" d="M0,0H21.006V21.006H0Z" fill="none"/>
      <path id="Path_45" data-name="Path 45" d="M7,9.905A1.7,1.7,0,0,1,8.313,9.24a1.722,1.722,0,0,1,1.313.665" transform="translate(-0.873 -1.153)" fill="none" stroke="#bd5d38" stroke-linecap="round" stroke-linejoin="round" stroke-width="1"/>
      <path id="Path_46" data-name="Path 46" d="M14,9.905a1.7,1.7,0,0,1,1.313-.665,1.722,1.722,0,0,1,1.313.665" transform="translate(-1.747 -1.153)" fill="none" stroke="#bd5d38" stroke-linecap="round" stroke-linejoin="round" stroke-width="1"/>
      <path id="Path_47" data-name="Path 47" d="M16.447,5.307a7.877,7.877,0,1,1-11.14,0,7.877,7.877,0,0,1,11.14,0" transform="translate(-0.374 -0.374)" fill="none" stroke="#bd5d38" stroke-linecap="round" stroke-linejoin="round" stroke-width="1"/>
      <path id="Path_48" data-name="Path 48" d="M14.627,14.688a4.66,4.66,0,0,1-6.127,0" transform="translate(-1.06 -1.832)" fill="none" stroke="#bd5d38" stroke-linecap="round" stroke-linejoin="round" stroke-width="1"/>
    </g>
  </g>
</svg>
